<?xml version="1.0" standalone="no"?>
<!DOCTYPE svg PUBLIC "-//W3C//DTD SVG 20010904//EN"
 "http://www.w3.org/TR/2001/REC-SVG-20010904/DTD/svg10.dtd">
<svg version="1.0" xmlns="http://www.w3.org/2000/svg"
 width="512.000000pt" height="512.000000pt" viewBox="0 0 512.000000 512.000000"
 preserveAspectRatio="xMidYMid meet">

<g transform="translate(0.000000,512.000000) scale(0.100000,-0.100000)"
fill="#000000" stroke="none">
<path d="M249 5017 c-100 -28 -175 -92 -221 -187 -31 -64 -32 -196 -1 -262 30
-66 96 -133 162 -165 48 -24 68 -28 141 -28 72 0 93 4 142 28 67 33 121 90
155 163 l24 54 197 0 197 0 400 -400 c430 -429 423 -423 479 -379 20 15 26 29
26 57 0 35 -19 56 -418 454 l-417 418 -231 0 -230 0 -23 54 c-31 76 -82 130
-154 166 -73 36 -160 46 -228 27z m178 -173 c47 -35 66 -70 71 -129 5 -67 -9
-105 -54 -145 -72 -63 -167 -60 -235 9 -84 83 -68 208 35 273 42 26 143 21
183 -8z"/>
<path d="M4395 4700 c-308 -81 -541 -340 -581 -647 l-7 -53 -35 31 c-61 54
-138 98 -219 125 -68 23 -99 27 -244 32 -186 5 -223 -2 -264 -49 -24 -30 -25
-35 -25 -178 0 -99 5 -166 15 -206 50 -194 203 -355 395 -416 50 -16 103 -22
223 -26 l157 -6 0 -434 c0 -353 -2 -434 -13 -430 -7 3 -272 151 -588 330
l-574 326 -3 81 -3 80 73 0 c40 0 90 5 110 10 57 16 119 69 150 129 24 45 28
65 28 132 0 147 -39 190 -180 197 -59 3 -104 -1 -137 -10 l-51 -15 -33 50
c-23 33 -52 60 -89 81 -52 30 -60 31 -167 31 -97 0 -115 -3 -139 -21 -59 -43
-69 -68 -69 -162 1 -103 21 -157 80 -214 50 -48 110 -68 202 -68 l74 0 -3
-157 -3 -157 -655 -372 c-360 -205 -658 -373 -663 -373 -4 -1 -6 79 -5 177 l3
177 100 5 c85 5 108 10 154 35 60 33 111 87 143 154 17 34 23 70 26 137 5 112
-7 155 -56 192 -34 26 -40 27 -151 26 -98 0 -124 -4 -165 -22 -67 -30 -111
-65 -143 -113 l-26 -39 -35 32 c-20 17 -66 45 -102 62 -60 28 -75 31 -188 34
-136 4 -168 -3 -206 -49 -32 -38 -42 -118 -28 -231 14 -111 45 -181 113 -253
91 -96 184 -135 326 -135 l84 0 -3 -141 -3 -141 -142 -82 c-165 -95 -183 -109
-183 -148 0 -35 40 -78 72 -78 13 0 75 29 138 65 l115 64 3 -259 2 -259 27
-20 c33 -27 63 -27 97 0 l26 20 0 304 0 303 141 80 141 80 331 -188 c518 -292
621 -351 630 -359 4 -4 -90 -63 -210 -131 -758 -429 -976 -552 -996 -561 -19
-9 -82 25 -497 266 -261 152 -476 278 -477 279 -1 1 61 37 138 81 142 79 169
102 169 141 0 30 -47 74 -79 74 -35 -1 -379 -198 -405 -233 -26 -35 -26 -89 0
-124 13 -17 459 -283 1185 -705 1395 -813 1322 -772 1360 -764 42 8 1818 1042
1852 1078 32 34 31 68 -3 102 -35 35 -67 24 -266 -92 -105 -62 -196 -112 -203
-112 -8 0 -1209 673 -1238 695 -2 1 217 126 486 279 l489 277 51 -28 50 -28 3
-303 3 -304 24 -19 c31 -26 83 -25 107 2 17 19 19 43 24 275 l5 253 473 -268
c260 -147 475 -270 477 -273 3 -3 -54 -40 -127 -83 -73 -43 -143 -87 -155 -98
-50 -45 -10 -135 55 -125 15 2 112 53 213 112 191 111 219 135 219 191 0 60
-20 76 -282 225 -139 79 -383 217 -541 307 -159 90 -300 169 -313 175 -24 11
-24 13 -24 145 l0 133 123 0 c140 0 191 12 274 67 117 77 173 196 173 366 0
92 -20 134 -80 165 -38 19 -60 22 -156 22 -138 0 -203 -12 -276 -49 l-58 -30
0 98 c0 54 -3 172 -7 263 l-6 166 219 4 c227 5 260 11 375 60 67 28 86 74 48
122 -26 34 -57 34 -156 -1 -72 -25 -93 -27 -275 -31 l-198 -4 0 98 c0 191 55
329 180 455 86 87 171 138 280 168 63 18 103 21 264 21 l189 0 -6 -112 c-3
-62 -13 -138 -23 -168 -19 -64 -67 -162 -100 -206 -32 -42 -31 -87 2 -113 62
-49 115 -8 189 142 61 125 76 188 82 354 6 158 0 187 -49 228 l-30 25 -236 -1
c-197 0 -249 -3 -307 -19z m-840 -704 c82 -40 165 -122 204 -201 34 -68 55
-190 49 -281 l-3 -49 -64 -3 c-119 -6 -256 14 -324 46 -165 78 -247 220 -247
430 l0 94 163 -4 c155 -3 165 -4 222 -32z m-1104 -315 c24 -25 29 -37 29 -80
l0 -51 -71 0 c-65 0 -73 2 -100 29 -24 25 -29 37 -29 80 l0 51 71 0 c65 0 73
-2 100 -29z m389 -146 c0 -92 -38 -125 -145 -125 l-65 0 0 38 c0 89 50 130
158 131 l52 1 0 -45z m-1410 -497 c0 -72 -31 -132 -84 -163 -36 -21 -56 -25
-121 -25 l-78 0 5 64 c10 123 70 176 201 176 l77 0 0 -52z m2944 -33 c-2 -85
-25 -137 -84 -187 -54 -47 -98 -58 -224 -58 l-106 0 0 58 c0 79 14 121 56 170
61 72 119 91 269 89 l90 -2 -1 -70z m-3557 32 c60 -22 117 -72 148 -128 24
-45 30 -68 33 -141 l4 -88 -74 0 c-132 0 -221 50 -272 152 -22 43 -26 66 -26
135 l0 83 78 -1 c42 0 91 -6 109 -12z m2301 -387 c226 -128 412 -236 412 -240
0 -4 -216 -130 -481 -280 -453 -256 -482 -272 -507 -260 -15 6 -227 125 -472
264 -245 139 -453 257 -463 263 -16 8 57 53 425 262 l443 251 5 -271 c5 -270
5 -271 29 -290 31 -26 64 -24 98 5 l28 24 3 272 3 271 32 -19 c18 -11 218
-124 445 -252z m-118 -1220 c206 -117 471 -266 588 -333 171 -96 211 -122 200
-132 -7 -7 -209 -126 -448 -265 -239 -138 -509 -295 -600 -348 -90 -52 -169
-95 -175 -95 -10 0 -1212 698 -1228 713 -5 4 184 117 420 250 235 134 513 292
617 351 l190 108 30 -18 c17 -10 200 -114 406 -231z"/>
<path d="M2200 1252 c-21 -11 -44 -36 -58 -63 -21 -38 -23 -54 -19 -124 5 -91
26 -142 78 -193 51 -50 94 -66 192 -70 l87 -4 0 -99 c0 -93 2 -102 25 -124 31
-31 66 -32 102 -1 26 22 27 29 31 125 l4 101 61 0 c79 0 129 16 177 58 64 54
84 102 85 202 0 98 -14 128 -71 155 -54 25 -224 18 -281 -12 l-41 -22 -19 21
c-41 46 -92 62 -208 66 -93 3 -115 0 -145 -16z m225 -147 c39 -19 55 -51 55
-110 l0 -45 -60 0 c-66 0 -113 18 -130 49 -5 11 -10 42 -10 70 l0 51 56 0 c31
0 71 -7 89 -15z m385 -59 c0 -19 -3 -42 -6 -51 -10 -26 -59 -45 -119 -45 -61
0 -66 7 -44 69 14 41 51 60 117 61 l52 0 0 -34z"/>
<path d="M169 4181 c-25 -25 -30 -37 -25 -59 13 -53 36 -62 166 -62 116 0 119
1 139 26 26 33 27 65 2 95 -18 22 -27 24 -135 27 l-116 4 -31 -31z"/>
<path d="M633 4200 c-45 -18 -55 -72 -22 -114 l20 -26 238 0 c235 0 238 0 259
23 29 31 28 72 -3 102 l-24 25 -223 -1 c-123 0 -233 -4 -245 -9z"/>
<path d="M204 3893 c-55 -11 -76 -85 -35 -126 21 -22 24 -22 461 -25 369 -2
444 0 474 12 38 16 53 48 42 92 -13 52 -36 54 -498 53 -233 -1 -433 -4 -444
-6z"/>
<path d="M172 3563 c-12 -10 -24 -30 -28 -45 -5 -22 0 -34 25 -58 l30 -31 456
3 457 3 19 24 c26 32 24 73 -4 99 -23 22 -25 22 -479 22 -420 0 -457 -1 -476
-17z"/>
</g>
</svg>
