<?xml version="1.0" encoding="UTF-8" ?>
<svg version="1.1" width="128" height="128" xmlns="http://www.w3.org/2000/svg" shape-rendering="crispEdges">
<rect x="80" y="65" width="1" height="1" fill="#99E550" />
<rect x="82" y="65" width="1" height="1" fill="#99E550" />
<rect x="88" y="65" width="1" height="1" fill="#99E550" />
<rect x="90" y="65" width="1" height="1" fill="#99E550" />
<rect x="97" y="65" width="1" height="1" fill="#99E550" />
<rect x="106" y="65" width="1" height="1" fill="#99E550" />
<rect x="109" y="65" width="1" height="1" fill="#99E550" />
<rect x="64" y="66" width="1" height="1" fill="#99E550" />
<rect x="65" y="66" width="1" height="1" fill="#DF7126" />
<rect x="66" y="66" width="1" height="1" fill="#99E550" />
<rect x="68" y="66" width="1" height="1" fill="#99E550" />
<rect x="69" y="66" width="1" height="1" fill="#DF7126" />
<rect x="73" y="66" width="1" height="1" fill="#DF7126" />
<rect x="74" y="66" width="1" height="1" fill="#99E550" />
<rect x="81" y="66" width="1" height="1" fill="#DF7126" />
<rect x="85" y="66" width="1" height="1" fill="#DF7126" />
<rect x="89" y="66" width="1" height="1" fill="#DF7126" />
<rect x="96" y="66" width="1" height="1" fill="#99E550" />
<rect x="97" y="66" width="1" height="1" fill="#DF7126" />
<rect x="100" y="66" width="1" height="1" fill="#99E550" />
<rect x="101" y="66" width="1" height="1" fill="#DF7126" />
<rect x="104" y="66" width="1" height="1" fill="#99E550" />
<rect x="105" y="66" width="1" height="1" fill="#DF7126" />
<rect x="109" y="66" width="1" height="1" fill="#DF7126" />
<rect x="110" y="66" width="1" height="1" fill="#99E550" />
<rect x="80" y="67" width="1" height="1" fill="#99E550" />
<rect x="84" y="67" width="1" height="1" fill="#99E550" />
<rect x="86" y="67" width="1" height="1" fill="#99E550" />
<rect x="98" y="67" width="1" height="1" fill="#99E550" />
<rect x="102" y="67" width="1" height="1" fill="#99E550" />
<rect x="106" y="67" width="1" height="1" fill="#99E550" />
<rect x="108" y="67" width="1" height="1" fill="#99E550" />
<rect x="65" y="69" width="1" height="1" fill="#99E550" />
<rect x="69" y="69" width="1" height="1" fill="#99E550" />
<rect x="73" y="69" width="1" height="1" fill="#99E550" />
<rect x="77" y="69" width="1" height="1" fill="#99E550" />
<rect x="88" y="69" width="1" height="1" fill="#99E550" />
<rect x="90" y="69" width="1" height="1" fill="#99E550" />
<rect x="94" y="69" width="1" height="1" fill="#99E550" />
<rect x="97" y="69" width="1" height="1" fill="#99E550" />
<rect x="101" y="69" width="1" height="1" fill="#99E550" />
<rect x="105" y="69" width="1" height="1" fill="#99E550" />
<rect x="110" y="69" width="1" height="1" fill="#99E550" />
<rect x="65" y="70" width="1" height="1" fill="#DF7126" />
<rect x="66" y="70" width="1" height="1" fill="#99E550" />
<rect x="68" y="70" width="1" height="1" fill="#99E550" />
<rect x="69" y="70" width="1" height="1" fill="#DF7126" />
<rect x="73" y="70" width="1" height="1" fill="#DF7126" />
<rect x="74" y="70" width="1" height="1" fill="#99E550" />
<rect x="77" y="70" width="1" height="1" fill="#DF7126" />
<rect x="81" y="70" width="1" height="1" fill="#DF7126" />
<rect x="85" y="70" width="1" height="1" fill="#DF7126" />
<rect x="89" y="70" width="1" height="1" fill="#DF7126" />
<rect x="93" y="70" width="1" height="1" fill="#DF7126" />
<rect x="97" y="70" width="1" height="1" fill="#DF7126" />
<rect x="101" y="70" width="1" height="1" fill="#DF7126" />
<rect x="105" y="70" width="1" height="1" fill="#DF7126" />
<rect x="108" y="70" width="1" height="1" fill="#99E550" />
<rect x="109" y="70" width="1" height="1" fill="#DF7126" />
<rect x="65" y="71" width="1" height="1" fill="#99E550" />
<rect x="82" y="71" width="1" height="1" fill="#99E550" />
<rect x="84" y="71" width="1" height="1" fill="#99E550" />
<rect x="90" y="71" width="1" height="1" fill="#99E550" />
<rect x="94" y="71" width="1" height="1" fill="#99E550" />
<rect x="98" y="71" width="1" height="1" fill="#99E550" />
<rect x="100" y="71" width="1" height="1" fill="#99E550" />
<rect x="102" y="71" width="1" height="1" fill="#99E550" />
<rect x="104" y="71" width="1" height="1" fill="#99E550" />
<rect x="65" y="73" width="1" height="1" fill="#99E550" />
<rect x="82" y="73" width="1" height="1" fill="#99E550" />
<rect x="84" y="73" width="1" height="1" fill="#99E550" />
<rect x="92" y="73" width="1" height="1" fill="#99E550" />
<rect x="98" y="73" width="1" height="1" fill="#99E550" />
<rect x="100" y="73" width="1" height="1" fill="#99E550" />
<rect x="102" y="73" width="1" height="1" fill="#99E550" />
<rect x="104" y="73" width="1" height="1" fill="#99E550" />
<rect x="108" y="73" width="1" height="1" fill="#99E550" />
<rect x="64" y="74" width="1" height="1" fill="#99E550" />
<rect x="65" y="74" width="1" height="1" fill="#DF7126" />
<rect x="68" y="74" width="1" height="1" fill="#99E550" />
<rect x="69" y="74" width="1" height="1" fill="#DF7126" />
<rect x="73" y="74" width="1" height="1" fill="#DF7126" />
<rect x="74" y="74" width="1" height="1" fill="#99E550" />
<rect x="77" y="74" width="1" height="1" fill="#DF7126" />
<rect x="81" y="74" width="1" height="1" fill="#DF7126" />
<rect x="85" y="74" width="1" height="1" fill="#DF7126" />
<rect x="89" y="74" width="1" height="1" fill="#DF7126" />
<rect x="93" y="74" width="1" height="1" fill="#DF7126" />
<rect x="97" y="74" width="1" height="1" fill="#DF7126" />
<rect x="101" y="74" width="1" height="1" fill="#DF7126" />
<rect x="105" y="74" width="1" height="1" fill="#DF7126" />
<rect x="109" y="74" width="1" height="1" fill="#DF7126" />
<rect x="110" y="74" width="1" height="1" fill="#99E550" />
<rect x="65" y="75" width="1" height="1" fill="#99E550" />
<rect x="69" y="75" width="1" height="1" fill="#99E550" />
<rect x="73" y="75" width="1" height="1" fill="#99E550" />
<rect x="77" y="75" width="1" height="1" fill="#99E550" />
<rect x="80" y="75" width="1" height="1" fill="#99E550" />
<rect x="84" y="75" width="1" height="1" fill="#99E550" />
<rect x="86" y="75" width="1" height="1" fill="#99E550" />
<rect x="88" y="75" width="1" height="1" fill="#99E550" />
<rect x="92" y="75" width="1" height="1" fill="#99E550" />
<rect x="97" y="75" width="1" height="1" fill="#99E550" />
<rect x="101" y="75" width="1" height="1" fill="#99E550" />
<rect x="105" y="75" width="1" height="1" fill="#99E550" />
<rect x="65" y="77" width="1" height="1" fill="#99E550" />
<rect x="73" y="77" width="1" height="1" fill="#99E550" />
<rect x="77" y="77" width="1" height="1" fill="#99E550" />
<rect x="80" y="77" width="1" height="1" fill="#99E550" />
<rect x="82" y="77" width="1" height="1" fill="#99E550" />
<rect x="84" y="77" width="1" height="1" fill="#99E550" />
<rect x="88" y="77" width="1" height="1" fill="#99E550" />
<rect x="94" y="77" width="1" height="1" fill="#99E550" />
<rect x="98" y="77" width="1" height="1" fill="#99E550" />
<rect x="100" y="77" width="1" height="1" fill="#99E550" />
<rect x="104" y="77" width="1" height="1" fill="#99E550" />
<rect x="108" y="77" width="1" height="1" fill="#99E550" />
<rect x="64" y="78" width="1" height="1" fill="#99E550" />
<rect x="65" y="78" width="1" height="1" fill="#DF7126" />
<rect x="66" y="78" width="1" height="1" fill="#99E550" />
<rect x="68" y="78" width="1" height="1" fill="#99E550" />
<rect x="69" y="78" width="1" height="1" fill="#DF7126" />
<rect x="70" y="78" width="1" height="1" fill="#99E550" />
<rect x="72" y="78" width="1" height="1" fill="#99E550" />
<rect x="73" y="78" width="1" height="1" fill="#DF7126" />
<rect x="74" y="78" width="1" height="1" fill="#99E550" />
<rect x="77" y="78" width="1" height="1" fill="#DF7126" />
<rect x="81" y="78" width="1" height="1" fill="#DF7126" />
<rect x="85" y="78" width="1" height="1" fill="#DF7126" />
<rect x="89" y="78" width="1" height="1" fill="#DF7126" />
<rect x="93" y="78" width="1" height="1" fill="#DF7126" />
<rect x="96" y="78" width="1" height="1" fill="#99E550" />
<rect x="97" y="78" width="1" height="1" fill="#DF7126" />
<rect x="101" y="78" width="1" height="1" fill="#DF7126" />
<rect x="102" y="78" width="1" height="1" fill="#99E550" />
<rect x="105" y="78" width="1" height="1" fill="#DF7126" />
<rect x="106" y="78" width="1" height="1" fill="#99E550" />
<rect x="109" y="78" width="1" height="1" fill="#DF7126" />
<rect x="110" y="78" width="1" height="1" fill="#99E550" />
<rect x="65" y="79" width="1" height="1" fill="#99E550" />
<rect x="69" y="79" width="1" height="1" fill="#99E550" />
<rect x="77" y="79" width="1" height="1" fill="#99E550" />
<rect x="80" y="79" width="1" height="1" fill="#99E550" />
<rect x="82" y="79" width="1" height="1" fill="#99E550" />
<rect x="86" y="79" width="1" height="1" fill="#99E550" />
<rect x="92" y="79" width="1" height="1" fill="#99E550" />
<rect x="94" y="79" width="1" height="1" fill="#99E550" />
<rect x="97" y="79" width="1" height="1" fill="#99E550" />
<rect x="104" y="79" width="1" height="1" fill="#99E550" />
<rect x="109" y="79" width="1" height="1" fill="#99E550" />
<rect x="63" y="80" width="49" height="1" fill="#000000" />
<rect x="63" y="81" width="1" height="16" fill="#000000" />
<rect x="64" y="81" width="1" height="3" fill="#99E550" />
<rect x="65" y="81" width="1" height="3" fill="#DF7126" />
<rect x="66" y="81" width="1" height="3" fill="#99E550" />
<rect x="67" y="81" width="1" height="16" fill="#000000" />
<rect x="68" y="81" width="1" height="3" fill="#99E550" />
<rect x="69" y="81" width="2" height="3" fill="#DF7126" />
<rect x="71" y="81" width="1" height="16" fill="#000000" />
<rect x="72" y="81" width="2" height="3" fill="#DF7126" />
<rect x="74" y="81" width="1" height="3" fill="#99E550" />
<rect x="75" y="81" width="1" height="16" fill="#000000" />
<rect x="76" y="81" width="3" height="3" fill="#DF7126" />
<rect x="79" y="81" width="1" height="16" fill="#000000" />
<rect x="80" y="81" width="1" height="1" fill="#99E550" />
<rect x="81" y="81" width="1" height="3" fill="#DF7126" />
<rect x="82" y="81" width="1" height="1" fill="#99E550" />
<rect x="83" y="81" width="1" height="16" fill="#000000" />
<rect x="84" y="81" width="3" height="2" fill="#DF7126" />
<rect x="87" y="81" width="1" height="16" fill="#000000" />
<rect x="88" y="81" width="1" height="1" fill="#99E550" />
<rect x="89" y="81" width="1" height="3" fill="#DF7126" />
<rect x="90" y="81" width="1" height="1" fill="#99E550" />
<rect x="91" y="81" width="1" height="16" fill="#000000" />
<rect x="92" y="81" width="3" height="3" fill="#DF7126" />
<rect x="95" y="81" width="1" height="16" fill="#000000" />
<rect x="96" y="81" width="2" height="1" fill="#99E550" />
<rect x="98" y="81" width="1" height="2" fill="#DF7126" />
<rect x="99" y="81" width="1" height="16" fill="#000000" />
<rect x="100" y="81" width="1" height="3" fill="#99E550" />
<rect x="101" y="81" width="2" height="2" fill="#DF7126" />
<rect x="103" y="81" width="1" height="16" fill="#000000" />
<rect x="104" y="81" width="1" height="3" fill="#99E550" />
<rect x="105" y="81" width="1" height="3" fill="#DF7126" />
<rect x="106" y="81" width="1" height="1" fill="#99E550" />
<rect x="107" y="81" width="1" height="16" fill="#000000" />
<rect x="108" y="81" width="1" height="2" fill="#DF7126" />
<rect x="109" y="81" width="2" height="1" fill="#99E550" />
<rect x="111" y="81" width="1" height="16" fill="#000000" />
<rect x="80" y="82" width="1" height="1" fill="#DF7126" />
<rect x="82" y="82" width="1" height="2" fill="#DF7126" />
<rect x="88" y="82" width="1" height="2" fill="#DF7126" />
<rect x="90" y="82" width="1" height="2" fill="#DF7126" />
<rect x="96" y="82" width="1" height="1" fill="#99E550" />
<rect x="97" y="82" width="1" height="2" fill="#DF7126" />
<rect x="106" y="82" width="1" height="1" fill="#DF7126" />
<rect x="109" y="82" width="1" height="2" fill="#DF7126" />
<rect x="110" y="82" width="1" height="1" fill="#99E550" />
<rect x="80" y="83" width="1" height="1" fill="#99E550" />
<rect x="84" y="83" width="1" height="1" fill="#99E550" />
<rect x="85" y="83" width="1" height="1" fill="#DF7126" />
<rect x="86" y="83" width="1" height="1" fill="#99E550" />
<rect x="96" y="83" width="1" height="1" fill="#DF7126" />
<rect x="98" y="83" width="1" height="1" fill="#99E550" />
<rect x="101" y="83" width="1" height="1" fill="#DF7126" />
<rect x="102" y="83" width="1" height="1" fill="#99E550" />
<rect x="106" y="83" width="1" height="1" fill="#99E550" />
<rect x="108" y="83" width="1" height="1" fill="#99E550" />
<rect x="110" y="83" width="1" height="1" fill="#DF7126" />
<rect x="64" y="84" width="3" height="1" fill="#000000" />
<rect x="68" y="84" width="3" height="1" fill="#000000" />
<rect x="72" y="84" width="3" height="1" fill="#000000" />
<rect x="76" y="84" width="3" height="1" fill="#000000" />
<rect x="80" y="84" width="3" height="1" fill="#000000" />
<rect x="84" y="84" width="3" height="1" fill="#000000" />
<rect x="88" y="84" width="3" height="1" fill="#000000" />
<rect x="92" y="84" width="3" height="1" fill="#000000" />
<rect x="96" y="84" width="3" height="1" fill="#000000" />
<rect x="100" y="84" width="3" height="1" fill="#000000" />
<rect x="104" y="84" width="3" height="1" fill="#000000" />
<rect x="108" y="84" width="3" height="1" fill="#000000" />
<rect x="64" y="85" width="3" height="1" fill="#99E550" />
<rect x="68" y="85" width="3" height="1" fill="#99E550" />
<rect x="72" y="85" width="3" height="1" fill="#99E550" />
<rect x="76" y="85" width="3" height="1" fill="#99E550" />
<rect x="80" y="85" width="3" height="2" fill="#DF7126" />
<rect x="84" y="85" width="3" height="2" fill="#DF7126" />
<rect x="88" y="85" width="1" height="1" fill="#99E550" />
<rect x="89" y="85" width="1" height="3" fill="#DF7126" />
<rect x="90" y="85" width="1" height="1" fill="#99E550" />
<rect x="92" y="85" width="2" height="3" fill="#DF7126" />
<rect x="94" y="85" width="1" height="1" fill="#99E550" />
<rect x="96" y="85" width="3" height="1" fill="#99E550" />
<rect x="100" y="85" width="3" height="1" fill="#99E550" />
<rect x="104" y="85" width="3" height="1" fill="#99E550" />
<rect x="108" y="85" width="1" height="3" fill="#99E550" />
<rect x="109" y="85" width="1" height="3" fill="#DF7126" />
<rect x="110" y="85" width="1" height="1" fill="#99E550" />
<rect x="64" y="86" width="2" height="1" fill="#DF7126" />
<rect x="66" y="86" width="1" height="2" fill="#99E550" />
<rect x="68" y="86" width="1" height="2" fill="#99E550" />
<rect x="69" y="86" width="2" height="2" fill="#DF7126" />
<rect x="72" y="86" width="2" height="2" fill="#DF7126" />
<rect x="74" y="86" width="1" height="2" fill="#99E550" />
<rect x="76" y="86" width="3" height="2" fill="#DF7126" />
<rect x="88" y="86" width="1" height="2" fill="#DF7126" />
<rect x="90" y="86" width="1" height="1" fill="#DF7126" />
<rect x="94" y="86" width="1" height="1" fill="#DF7126" />
<rect x="96" y="86" width="3" height="1" fill="#DF7126" />
<rect x="100" y="86" width="3" height="1" fill="#DF7126" />
<rect x="104" y="86" width="3" height="1" fill="#DF7126" />
<rect x="110" y="86" width="1" height="2" fill="#DF7126" />
<rect x="64" y="87" width="2" height="1" fill="#99E550" />
<rect x="80" y="87" width="2" height="1" fill="#DF7126" />
<rect x="82" y="87" width="1" height="1" fill="#99E550" />
<rect x="84" y="87" width="1" height="1" fill="#99E550" />
<rect x="85" y="87" width="2" height="1" fill="#DF7126" />
<rect x="90" y="87" width="1" height="1" fill="#99E550" />
<rect x="94" y="87" width="1" height="1" fill="#99E550" />
<rect x="96" y="87" width="2" height="1" fill="#DF7126" />
<rect x="98" y="87" width="1" height="1" fill="#99E550" />
<rect x="100" y="87" width="1" height="1" fill="#99E550" />
<rect x="101" y="87" width="1" height="1" fill="#DF7126" />
<rect x="102" y="87" width="1" height="1" fill="#99E550" />
<rect x="104" y="87" width="1" height="1" fill="#99E550" />
<rect x="105" y="87" width="2" height="1" fill="#DF7126" />
<rect x="64" y="88" width="3" height="1" fill="#000000" />
<rect x="68" y="88" width="3" height="1" fill="#000000" />
<rect x="72" y="88" width="3" height="1" fill="#000000" />
<rect x="76" y="88" width="3" height="1" fill="#000000" />
<rect x="80" y="88" width="3" height="1" fill="#000000" />
<rect x="84" y="88" width="3" height="1" fill="#000000" />
<rect x="88" y="88" width="3" height="1" fill="#000000" />
<rect x="92" y="88" width="3" height="1" fill="#000000" />
<rect x="96" y="88" width="3" height="1" fill="#000000" />
<rect x="100" y="88" width="3" height="1" fill="#000000" />
<rect x="104" y="88" width="3" height="1" fill="#000000" />
<rect x="108" y="88" width="3" height="1" fill="#000000" />
<rect x="64" y="89" width="3" height="1" fill="#99E550" />
<rect x="68" y="89" width="1" height="3" fill="#99E550" />
<rect x="69" y="89" width="2" height="2" fill="#DF7126" />
<rect x="72" y="89" width="2" height="2" fill="#DF7126" />
<rect x="74" y="89" width="1" height="3" fill="#99E550" />
<rect x="76" y="89" width="3" height="2" fill="#DF7126" />
<rect x="80" y="89" width="2" height="2" fill="#DF7126" />
<rect x="82" y="89" width="1" height="1" fill="#99E550" />
<rect x="84" y="89" width="1" height="1" fill="#99E550" />
<rect x="85" y="89" width="2" height="2" fill="#DF7126" />
<rect x="88" y="89" width="3" height="2" fill="#DF7126" />
<rect x="92" y="89" width="1" height="1" fill="#99E550" />
<rect x="93" y="89" width="2" height="3" fill="#DF7126" />
<rect x="96" y="89" width="2" height="2" fill="#DF7126" />
<rect x="98" y="89" width="1" height="1" fill="#99E550" />
<rect x="100" y="89" width="1" height="1" fill="#99E550" />
<rect x="101" y="89" width="1" height="2" fill="#DF7126" />
<rect x="102" y="89" width="1" height="1" fill="#99E550" />
<rect x="104" y="89" width="1" height="1" fill="#99E550" />
<rect x="105" y="89" width="2" height="2" fill="#DF7126" />
<rect x="108" y="89" width="2" height="2" fill="#DF7126" />
<rect x="110" y="89" width="1" height="3" fill="#99E550" />
<rect x="64" y="90" width="1" height="2" fill="#99E550" />
<rect x="65" y="90" width="2" height="1" fill="#DF7126" />
<rect x="82" y="90" width="1" height="2" fill="#DF7126" />
<rect x="84" y="90" width="1" height="1" fill="#DF7126" />
<rect x="92" y="90" width="1" height="1" fill="#DF7126" />
<rect x="98" y="90" width="1" height="1" fill="#DF7126" />
<rect x="100" y="90" width="1" height="1" fill="#DF7126" />
<rect x="102" y="90" width="1" height="1" fill="#DF7126" />
<rect x="104" y="90" width="1" height="1" fill="#DF7126" />
<rect x="44" y="91" width="1" height="1" fill="#99E550" />
<rect x="65" y="91" width="2" height="1" fill="#99E550" />
<rect x="69" y="91" width="2" height="1" fill="#99E550" />
<rect x="72" y="91" width="2" height="1" fill="#99E550" />
<rect x="76" y="91" width="3" height="1" fill="#99E550" />
<rect x="80" y="91" width="1" height="1" fill="#99E550" />
<rect x="81" y="91" width="1" height="1" fill="#DF7126" />
<rect x="84" y="91" width="1" height="1" fill="#99E550" />
<rect x="85" y="91" width="1" height="1" fill="#DF7126" />
<rect x="86" y="91" width="1" height="1" fill="#99E550" />
<rect x="88" y="91" width="1" height="1" fill="#99E550" />
<rect x="89" y="91" width="2" height="1" fill="#DF7126" />
<rect x="92" y="91" width="1" height="1" fill="#99E550" />
<rect x="96" y="91" width="3" height="1" fill="#99E550" />
<rect x="100" y="91" width="3" height="1" fill="#99E550" />
<rect x="104" y="91" width="3" height="1" fill="#99E550" />
<rect x="108" y="91" width="1" height="1" fill="#99E550" />
<rect x="109" y="91" width="1" height="1" fill="#DF7126" />
<rect x="47" y="92" width="1" height="1" fill="#99E550" />
<rect x="64" y="92" width="3" height="1" fill="#000000" />
<rect x="68" y="92" width="3" height="1" fill="#000000" />
<rect x="72" y="92" width="3" height="1" fill="#000000" />
<rect x="76" y="92" width="3" height="1" fill="#000000" />
<rect x="80" y="92" width="3" height="1" fill="#000000" />
<rect x="84" y="92" width="3" height="1" fill="#000000" />
<rect x="88" y="92" width="3" height="1" fill="#000000" />
<rect x="92" y="92" width="3" height="1" fill="#000000" />
<rect x="96" y="92" width="3" height="1" fill="#000000" />
<rect x="100" y="92" width="3" height="1" fill="#000000" />
<rect x="104" y="92" width="3" height="1" fill="#000000" />
<rect x="108" y="92" width="3" height="1" fill="#000000" />
<rect x="44" y="93" width="1" height="1" fill="#99E550" />
<rect x="64" y="93" width="3" height="1" fill="#99E550" />
<rect x="68" y="93" width="1" height="3" fill="#99E550" />
<rect x="69" y="93" width="1" height="2" fill="#DF7126" />
<rect x="70" y="93" width="1" height="3" fill="#99E550" />
<rect x="72" y="93" width="3" height="1" fill="#99E550" />
<rect x="76" y="93" width="3" height="1" fill="#99E550" />
<rect x="80" y="93" width="1" height="1" fill="#99E550" />
<rect x="81" y="93" width="1" height="3" fill="#DF7126" />
<rect x="82" y="93" width="1" height="1" fill="#99E550" />
<rect x="84" y="93" width="1" height="1" fill="#99E550" />
<rect x="85" y="93" width="2" height="2" fill="#DF7126" />
<rect x="88" y="93" width="1" height="1" fill="#99E550" />
<rect x="89" y="93" width="2" height="3" fill="#DF7126" />
<rect x="92" y="93" width="2" height="2" fill="#DF7126" />
<rect x="94" y="93" width="1" height="1" fill="#99E550" />
<rect x="96" y="93" width="2" height="1" fill="#DF7126" />
<rect x="98" y="93" width="1" height="1" fill="#99E550" />
<rect x="100" y="93" width="1" height="1" fill="#99E550" />
<rect x="101" y="93" width="1" height="3" fill="#DF7126" />
<rect x="102" y="93" width="1" height="3" fill="#99E550" />
<rect x="104" y="93" width="1" height="1" fill="#99E550" />
<rect x="105" y="93" width="1" height="3" fill="#DF7126" />
<rect x="106" y="93" width="1" height="3" fill="#99E550" />
<rect x="108" y="93" width="1" height="1" fill="#99E550" />
<rect x="109" y="93" width="2" height="1" fill="#DF7126" />
<rect x="64" y="94" width="1" height="2" fill="#99E550" />
<rect x="65" y="94" width="1" height="1" fill="#DF7126" />
<rect x="66" y="94" width="1" height="2" fill="#99E550" />
<rect x="72" y="94" width="1" height="2" fill="#99E550" />
<rect x="73" y="94" width="1" height="2" fill="#DF7126" />
<rect x="74" y="94" width="1" height="2" fill="#99E550" />
<rect x="76" y="94" width="3" height="1" fill="#DF7126" />
<rect x="80" y="94" width="1" height="1" fill="#DF7126" />
<rect x="82" y="94" width="1" height="1" fill="#DF7126" />
<rect x="84" y="94" width="1" height="2" fill="#DF7126" />
<rect x="88" y="94" width="1" height="2" fill="#DF7126" />
<rect x="94" y="94" width="1" height="1" fill="#DF7126" />
<rect x="96" y="94" width="1" height="2" fill="#99E550" />
<rect x="97" y="94" width="2" height="1" fill="#DF7126" />
<rect x="100" y="94" width="1" height="2" fill="#DF7126" />
<rect x="104" y="94" width="1" height="1" fill="#DF7126" />
<rect x="108" y="94" width="2" height="1" fill="#DF7126" />
<rect x="110" y="94" width="1" height="2" fill="#99E550" />
<rect x="41" y="95" width="1" height="1" fill="#99E550" />
<rect x="44" y="95" width="1" height="1" fill="#99E550" />
<rect x="47" y="95" width="1" height="1" fill="#99E550" />
<rect x="65" y="95" width="1" height="1" fill="#99E550" />
<rect x="69" y="95" width="1" height="1" fill="#99E550" />
<rect x="76" y="95" width="3" height="1" fill="#99E550" />
<rect x="80" y="95" width="1" height="1" fill="#99E550" />
<rect x="82" y="95" width="1" height="1" fill="#99E550" />
<rect x="85" y="95" width="1" height="1" fill="#DF7126" />
<rect x="86" y="95" width="1" height="1" fill="#99E550" />
<rect x="92" y="95" width="1" height="1" fill="#99E550" />
<rect x="93" y="95" width="1" height="1" fill="#DF7126" />
<rect x="94" y="95" width="1" height="1" fill="#99E550" />
<rect x="97" y="95" width="1" height="1" fill="#99E550" />
<rect x="98" y="95" width="1" height="1" fill="#DF7126" />
<rect x="104" y="95" width="1" height="1" fill="#99E550" />
<rect x="108" y="95" width="1" height="1" fill="#DF7126" />
<rect x="109" y="95" width="1" height="1" fill="#99E550" />
<rect x="64" y="96" width="3" height="1" fill="#000000" />
<rect x="68" y="96" width="3" height="1" fill="#000000" />
<rect x="72" y="96" width="3" height="1" fill="#000000" />
<rect x="76" y="96" width="3" height="1" fill="#000000" />
<rect x="80" y="96" width="3" height="1" fill="#000000" />
<rect x="84" y="96" width="3" height="1" fill="#000000" />
<rect x="88" y="96" width="3" height="1" fill="#000000" />
<rect x="92" y="96" width="3" height="1" fill="#000000" />
<rect x="96" y="96" width="3" height="1" fill="#000000" />
<rect x="100" y="96" width="3" height="1" fill="#000000" />
<rect x="104" y="96" width="3" height="1" fill="#000000" />
<rect x="108" y="96" width="3" height="1" fill="#000000" />
<rect x="41" y="98" width="1" height="1" fill="#99E550" />
<rect x="44" y="98" width="1" height="1" fill="#99E550" />
<rect x="47" y="98" width="1" height="1" fill="#99E550" />
<rect x="20" y="100" width="1" height="1" fill="#99E550" />
<rect x="23" y="100" width="1" height="1" fill="#99E550" />
<rect x="26" y="100" width="1" height="1" fill="#99E550" />
<rect x="29" y="100" width="1" height="1" fill="#99E550" />
<rect x="19" y="101" width="1" height="1" fill="#99E550" />
<rect x="20" y="101" width="1" height="1" fill="#DF7126" />
<rect x="21" y="101" width="1" height="1" fill="#99E550" />
<rect x="23" y="101" width="1" height="1" fill="#DF7126" />
<rect x="24" y="101" width="1" height="1" fill="#99E550" />
<rect x="26" y="101" width="1" height="1" fill="#DF7126" />
<rect x="28" y="101" width="1" height="1" fill="#99E550" />
<rect x="29" y="101" width="1" height="1" fill="#DF7126" />
<rect x="38" y="101" width="1" height="1" fill="#99E550" />
<rect x="41" y="101" width="1" height="1" fill="#99E550" />
<rect x="44" y="101" width="1" height="1" fill="#99E550" />
<rect x="47" y="101" width="1" height="1" fill="#99E550" />
<rect x="20" y="102" width="1" height="1" fill="#99E550" />
<rect x="29" y="102" width="1" height="2" fill="#99E550" />
<rect x="37" y="102" width="1" height="1" fill="#99E550" />
<rect x="38" y="102" width="1" height="1" fill="#DF7126" />
<rect x="39" y="102" width="1" height="1" fill="#99E550" />
<rect x="41" y="102" width="1" height="1" fill="#DF7126" />
<rect x="42" y="102" width="1" height="1" fill="#99E550" />
<rect x="44" y="102" width="1" height="1" fill="#DF7126" />
<rect x="46" y="102" width="1" height="1" fill="#99E550" />
<rect x="47" y="102" width="1" height="1" fill="#DF7126" />
<rect x="23" y="103" width="1" height="1" fill="#99E550" />
<rect x="26" y="103" width="1" height="1" fill="#99E550" />
<rect x="38" y="103" width="1" height="1" fill="#99E550" />
<rect x="47" y="103" width="1" height="2" fill="#99E550" />
<rect x="19" y="104" width="1" height="1" fill="#99E550" />
<rect x="20" y="104" width="1" height="1" fill="#DF7126" />
<rect x="22" y="104" width="1" height="1" fill="#99E550" />
<rect x="23" y="104" width="1" height="1" fill="#DF7126" />
<rect x="26" y="104" width="1" height="1" fill="#DF7126" />
<rect x="27" y="104" width="1" height="1" fill="#99E550" />
<rect x="29" y="104" width="1" height="1" fill="#DF7126" />
<rect x="41" y="104" width="1" height="1" fill="#99E550" />
<rect x="44" y="104" width="1" height="1" fill="#99E550" />
<rect x="20" y="105" width="1" height="1" fill="#99E550" />
<rect x="26" y="105" width="1" height="1" fill="#99E550" />
<rect x="29" y="105" width="1" height="1" fill="#99E550" />
<rect x="34" y="105" width="1" height="1" fill="#99E550" />
<rect x="37" y="105" width="1" height="1" fill="#99E550" />
<rect x="38" y="105" width="1" height="1" fill="#DF7126" />
<rect x="40" y="105" width="1" height="1" fill="#99E550" />
<rect x="41" y="105" width="1" height="1" fill="#DF7126" />
<rect x="44" y="105" width="1" height="1" fill="#DF7126" />
<rect x="45" y="105" width="1" height="1" fill="#99E550" />
<rect x="47" y="105" width="1" height="1" fill="#DF7126" />
<rect x="38" y="106" width="1" height="1" fill="#99E550" />
<rect x="44" y="106" width="1" height="1" fill="#99E550" />
<rect x="47" y="106" width="1" height="1" fill="#99E550" />
<rect x="19" y="107" width="1" height="1" fill="#99E550" />
<rect x="20" y="107" width="1" height="1" fill="#DF7126" />
<rect x="22" y="107" width="1" height="1" fill="#99E550" />
<rect x="23" y="107" width="1" height="1" fill="#DF7126" />
<rect x="24" y="107" width="1" height="1" fill="#99E550" />
<rect x="26" y="107" width="1" height="1" fill="#DF7126" />
<rect x="27" y="107" width="1" height="1" fill="#99E550" />
<rect x="29" y="107" width="1" height="1" fill="#DF7126" />
<rect x="23" y="108" width="1" height="1" fill="#99E550" />
<rect x="26" y="108" width="1" height="1" fill="#99E550" />
<rect x="29" y="108" width="1" height="1" fill="#99E550" />
<rect x="31" y="108" width="1" height="1" fill="#99E550" />
<rect x="33" y="108" width="1" height="1" fill="#99E550" />
<rect x="35" y="108" width="1" height="1" fill="#99E550" />
<rect x="37" y="108" width="1" height="1" fill="#99E550" />
<rect x="38" y="108" width="1" height="1" fill="#DF7126" />
<rect x="40" y="108" width="1" height="1" fill="#99E550" />
<rect x="41" y="108" width="1" height="1" fill="#DF7126" />
<rect x="42" y="108" width="1" height="1" fill="#99E550" />
<rect x="44" y="108" width="1" height="1" fill="#DF7126" />
<rect x="45" y="108" width="1" height="1" fill="#99E550" />
<rect x="47" y="108" width="1" height="1" fill="#DF7126" />
<rect x="20" y="109" width="1" height="1" fill="#99E550" />
<rect x="41" y="109" width="1" height="1" fill="#99E550" />
<rect x="44" y="109" width="1" height="1" fill="#99E550" />
<rect x="47" y="109" width="1" height="1" fill="#99E550" />
<rect x="19" y="110" width="1" height="1" fill="#99E550" />
<rect x="20" y="110" width="1" height="1" fill="#DF7126" />
<rect x="21" y="110" width="2" height="1" fill="#99E550" />
<rect x="23" y="110" width="1" height="1" fill="#DF7126" />
<rect x="24" y="110" width="1" height="1" fill="#99E550" />
<rect x="26" y="110" width="1" height="1" fill="#DF7126" />
<rect x="27" y="110" width="1" height="1" fill="#99E550" />
<rect x="29" y="110" width="1" height="1" fill="#DF7126" />
<rect x="38" y="110" width="1" height="1" fill="#99E550" />
<rect x="31" y="111" width="1" height="1" fill="#99E550" />
<rect x="33" y="111" width="1" height="1" fill="#99E550" />
<rect x="35" y="111" width="1" height="1" fill="#99E550" />
<rect x="37" y="111" width="1" height="1" fill="#99E550" />
<rect x="38" y="111" width="1" height="1" fill="#DF7126" />
<rect x="39" y="111" width="2" height="1" fill="#99E550" />
<rect x="41" y="111" width="1" height="1" fill="#DF7126" />
<rect x="42" y="111" width="1" height="1" fill="#99E550" />
<rect x="44" y="111" width="1" height="1" fill="#DF7126" />
<rect x="45" y="111" width="1" height="1" fill="#99E550" />
<rect x="47" y="111" width="1" height="1" fill="#DF7126" />
</svg>